# xmcd CD database file
#
# Track frame offsets:
#	150
#	31787
#	38289
#	59841
#	85235
#	98360
#	128960
#	161643
#	179365
#	221365
#	224447
#	242422
#
# Disc length: 3489 seconds
#
# Revision: 6
# Processed by: cddbd v1.5.2PL0 Copyright (c) Steve Scherf et al.
# Submitted via: CDex 1.70beta2
#
DISCID=980d9f0c
DTITLE=Ludwig van Beethoven - Complete Works of Ludwig van Beethoven (by am@do classics) - CD 78
DYEAR=2007
DGENRE=Classical
TTITLE0=Cantata on the death of emperor Joseph II, WoO 87\1 - Tot! Tot, stöhnt es durch die öde Nacht
TTITLE1=Cantata on the death of emperor Joseph II, WoO 87\2 - Ein Ungeheuer, sein Name Fanatismus
TTITLE2=Cantata on the death of emperor Joseph II, WoO 87\3 - Da kam Joseph
TTITLE3=Cantata on the death of emperor Joseph II, WoO 87\4 - Da stiegen die Menschen ans Licht
TTITLE4=Cantata on the death of emperor Joseph II, WoO 87\5 - Er schläft, von den Sorgen seiner Welt entladen
TTITLE5=Cantata on the death of emperor Joseph II, WoO 87\6 - Hier schlummert seinen stillen Frieden der große Dulder
TTITLE6=Cantata on the death of emperor Joseph II, WoO 87\7 - Tot! Tot, stöhnt es durch die öde Nacht
TTITLE7=Cantata on the accession of emperor Leopold II, WoO 88\1 - Er schlummert, lasst sanft den großen Fürsten ruhen!
TTITLE8=Cantata on the accession of emperor Leopold II, WoO 88\2 - Fließe, Wonnezähren, fließe!
TTITLE9=Cantata on the accession of emperor Leopold II, WoO 88\3 - Ihr staunt, Völker der Erde!
TTITLE10=Cantata on the accession of emperor Leopold II, WoO 88\4 - Wie bebt mein Herz vor Wonne! Ihr, die Joseph ihren Vater nannten
TTITLE11=Cantata on the accession of emperor Leopold II, WoO 88\5 - Heil! Stürzet nieder, Millionen
EXTD=YEAR: 2007
EXTT0=
EXTT1=
EXTT2=
EXTT3=
EXTT4=
EXTT5=
EXTT6=
EXTT7=
EXTT8=
EXTT9=
EXTT10=
EXTT11=
PLAYORDER=
